<?xml version="1.0" encoding="UTF-8"?>
<svg id="Layer_1" data-name="Layer 1" xmlns="http://www.w3.org/2000/svg" viewBox="0 0 55.97 208.9">
  <g id="Blomst3">
    <path id="blomst" d="M35.42.57c2.55,2.28,3.94,3.52,4.39,5.48.24,1.84,1.73,13.13-2.23,25-7.96,8.14-6.06,2.89-3.28-2.04,3.52-4.33,6.15-7.57,9.92-10.72,4.1.77,9.05,1.71,11.22,8.34-2.17,4.54-4.34,9.09-9.35,11.61-4.92,1.09-9.83,2.18-14.95,2.17-4.9,1.18,3.6,2.37,13.99-1.8,5.81,6.3,8.4,9.11,9.02,13.16.19,3.81.3,6.07.27,8.49-1.19,1.93-2.39,3.86-5.14,5-1.88-1.28-11.79-8.01-19.16-18.41-3.07-11.59-.7-4.9,1.67,1.8s3.76,10.61,5.16,14.83c-1.11,4-2.23,8-7.05,11.19-3.57-2.12-6.44-11.46-6.12-21.75,3.45-9.14,1.13-.77-5.8,6.15-8.37,2.32-11.71,3.25-16.2,2.93-1.26-3.23-2.86-7.32,2.21-10.68,4.13-1.49,10.65-3.84,17.17-6.19,6.52-2.35-4.67,1.19-18.03-4.4-5.34-10.46.46-10.74,6.36-11.01,5.64,1.38,11.28,2.76,16.73,6.05,2.61,5.18-1.96.92-6.61-3.46-2.98-5.5-5.96-11-7.02-17.93l2.85-5.57c5.05,4.49,6.73,10.62,10.4,15.56,5.69-7.78-2.42-19.4,9.58-23.84Z" style="fill: none; stroke: #010101; stroke-miterlimit: 10;"/>
    <path id="stilk" d="M35.7,208.9c-.28-19.15-6.79-37.75-7.63-56.88-1.51-34.17,14.91-69.42,3.47-101.65" style="fill: none; stroke: #010101; stroke-miterlimit: 10;"/>
    <path id="blad" d="M30.38,118.22c3.88-.3,5.28-5.09,6.82-8.67,1.86-4.33,5.48-8.07,10.04-9.24,1.54-.39,3.26-.47,4.64.31s2.24,2.62,1.52,4.04c-.6,1.18-1.99,1.68-3.27,2.04-3.99,1.12-8.09,1.87-12.22,2.22" style="fill: none; stroke: #010101; stroke-miterlimit: 10;"/>
    <path id="blad-2" data-name="blad" d="M31.84,109.12c-6.92-6.14-13.84-12.27-20.76-18.41-1.75-1.55-4.11-3.21-6.23-2.21-1.61,2.66.33,6.34,3.16,7.64s6.12.86,9.18.28" style="fill: none; stroke: #010101; stroke-miterlimit: 10;"/>
  </g>
</svg>